<svg xmlns="http://www.w3.org/2000/svg" viewBox="0 0 916.45 263.72"><defs><style>.cls-1{fill:#231f20;}</style></defs><g id="Layer_2" data-name="Layer 2"><g id="Capa_1" data-name="Capa 1"><path class="cls-1" d="M446.82,129c0-20.09-6.58-48.24-27.48-72.84,21-4.41,32.45-11.93,30.57-34.08A15.29,15.29,0,0,0,434.62,8c-9.77,0-16.27,3.88-16.27,12.59s7.12,11,10.95,10.4,11.5-3.83,9.86-11c0,0,6.57,23-23.55,27.38-1.19.17-2.53.33-4,.47-25.88-25.19-69-44.82-138.91-44.82C270.13,3.09,148.43,2,1.43.58A1.37,1.37,0,0,0,.05,2.07,19.75,19.75,0,0,1,.13,4.74c0,.5-.06,1-.12,1.5A1.37,1.37,0,0,0,1.37,7.76c29.71,0,57.51,0,82.29,0,.86.73,150.72,3.51,150.72,3.51,49.28,10.4,56.94,31.76,56.94,40s-2.74,10.95-7.66,12-10.41.55-10.41-7.67,14.24-10.4,14.24-10.4S262.85,37,263.4,55.65s17,18.07,17,18.07,21.35.55,21.35-19.71c0-30.12-41.61-42.16-41.61-42.16C324.86,10,368,26.4,395.13,49.18,349.74,52.57,264.27,62.51,277.63,157c0,0-1.62-74.14,69.54-89.25,22.38-4.76,42-6.77,58-9.09,21.23,22.35,29.61,48.75,29.61,69.86,0,47.09-29.57,92.54-79.4,92.54s-61.32-37.23-61.32-61.87,10.4-55.3,48.18-55.3,43.81,23,43.81,40S377.29,175,357,175s-14.79-13.15-14.79-13.15c13.69,8.77,22.45-3.83,22.45-9.85s2.74-19.17-14.23-19.17-26.29,11.5-26.29,20.26-.54,34.5,30.12,34.5S397,161.87,397,145.45s-7.67-54.76-48.19-54.76S282,118.07,282,149.83s12.6,52.56,12.6,52.56c-38.33-31.75-45.45-67.35-46-106.22S198.79,42,198.79,42c-3.84,20.26,7.12,30.12,7.12,41.62s-6,3.83-6,3.83C183.46,26.08,132,32.66,132,32.66c0,10.7,5.87,21.4,10.22,27.84-4.82-5-13.77-11.42-28.29-11.42C74.48,49.08,63,90.15,63,104.38s4.38,42.16,32.3,42.16,29-18.07,29-23.54,2.74-24.64-15.88-24.64S88.18,111,88.18,111s22.45-7.66,22.45,7.67-11.5,12.59-15.33,12.59-17.52,1.64-17.52-25.73S103,75.36,124.32,75.36C221.24,75.36,250.8,234.7,351,234.7c33.4,0,63.52-29,63.52-29s-15.33,14.78-15.33,32.85,10.95,25.19,23,25.19,21.91-8.22,22.45-23-16.42-14.24-16.42-14.24-17,7.67-1.65,12.05,3.29,12.59-4.38,10.95-17-5.47-3.83-30.11S446.82,172.83,446.82,129Z"/><path class="cls-1" d="M681.66,11.3S831.52,8.52,832.38,7.79c24.87,0,52.5,0,81.93,0a1.39,1.39,0,0,0,1.37-1.35h0a21.57,21.57,0,0,1,.72-4.68A1.37,1.37,0,0,0,915.08,0L833.37.63c-.18-.27-6.85-.39-21.79.17C752.7,1.25,648.31,2.65,648,3.09h-4.66c-69.86,0-113,19.63-138.9,44.82-1.46-.14-2.81-.3-4-.47-30.12-4.38-23.55-27.38-23.55-27.38-1.64,7.12,6,10.41,9.86,11s10.95-1.64,10.95-10.4S491.19,8.06,481.42,8A15.29,15.29,0,0,0,466.13,22.1c-1.88,22.15,9.53,29.67,30.57,34.08-20.9,24.6-27.48,52.75-27.48,72.84,0,43.81,15.33,65.71,28.47,90.35s3.83,28.47-3.83,30.11-19.72-6.57-4.38-10.95-1.65-12.05-1.65-12.05-17-.54-16.42,14.24,10.4,23,22.45,23,23-7.12,23-25.19-15.33-32.85-15.33-32.85,30.12,29,63.52,29c20.07,0,37.3-6.41,52.81-16.63l-.25.2s46-7.12,74.47-41.61,41.61-33.4,50.92-33.4,13.43,6.05,12.59,20.26c-.55,9.31-13.14,7.66-13.14,7.66s-11-3.28-5.48-17c0,0-11.49,1.64-11,14.78s6.57,17,20.81,17,21.7-6,23.54-23c2.19-20.26-11-32.3-30.11-32.3-44.56,0-69.17,66.31-104.86,73.74,51.58-46.21,86.45-129,156.33-129,21.35,0,46.54,2.74,46.54,30.12s-13.69,25.73-17.52,25.73-15.33,2.74-15.33-12.59S827.86,111,827.86,111s-1.65-12.59-20.26-12.59S791.72,117.52,791.72,123s1.09,23.54,29,23.54S853,118.62,853,104.38s-11.48-55.3-50.92-55.3c-14.52,0-23.47,6.37-28.29,11.43,4.34-6.45,10.22-17.15,10.22-27.85,0,0-51.47-6.57-67.89,54.75,0,0-6,7.66-6-3.83s11-21.36,7.12-41.62c0,0-49.28,15.34-49.82,54.21s-7.67,74.47-46,106.22c0,0,12.6-20.8,12.6-52.56s-26.29-59.14-66.8-59.14S519,129,519,145.45s12.05,42.16,42.71,42.16,30.12-25.74,30.12-34.5-9.31-20.26-26.29-20.26S551.35,146,551.35,152s8.76,18.62,22.45,9.85c0,0,5.47,13.15-14.79,13.15s-29-14.24-29-31.21,6-40,43.81-40S622,134.5,622,159.14,610.48,221,560.66,221s-79.4-45.45-79.4-92.54c0-21.11,8.38-47.51,29.61-69.86,16,2.32,35.62,4.33,58,9.09C640,82.81,638.41,157,638.41,157,651.77,62.51,566.3,52.57,520.91,49.18c27.18-22.78,70.27-39.2,135-37.33,0,0-41.61,12-41.61,42.16,0,20.26,21.35,19.71,21.35,19.71s16.43.55,17-18.07-24.09-10.4-24.09-10.4,14.24,2.19,14.24,10.4-5.48,8.76-10.41,7.67-7.66-3.84-7.66-12S632.38,21.7,681.66,11.3Z"/></g></g></svg>