<svg xmlns="http://www.w3.org/2000/svg" viewBox="0 0 1125.86 275.42"><defs><style>.cls-1{fill:#231f20;}</style></defs><g id="Layer_2" data-name="Layer 2"><g id="Capa_1" data-name="Capa 1"><path class="cls-1" d="M361.17,74.18c12.71,8.59,27.3,13.29,41.66,18.09,32.17,10.74,66,10.47,98.16,21,15.49,5.09,27.15,16.61,38.09,27.71,3.6,3.66,25.66,36.66,12.87,37.36s-11.07,4.26-19.39-6.65a121.06,121.06,0,0,0-15.75-17.49c-12.16-10.69-36.21-13.37-46.22-13.14-19.24.44-45.72,4-59.69,17.72-6.23,6.12-11.47,14.52-15.2,22.45-9.54,20.27,4.11,72.86,21.34,67.87,3.09-.89,9.29-3.79,11.9-.57,2.23,2.74-2.89,7.24-4.76,8.44-6.36,4.1-13.74,3.31-20.51,2.47-10-1.23-16.93-11.17-21.43-19.11-2.12-3.72-5.24-22-10.15-19.85-10.92,4.88-11.7-11.74-11.76-19.94s3.84-14.81,9-21.14a76,76,0,0,1,12.09-12.22c2.86-2.23,9.73-5.6,9.89-10,.31-8.38-14.44,4.88-16.31,5.79-8.43,4.11-15.66-.26-10.93-9,4.13-7.64,9.22-14.82,16.7-19.5,29.35-18.35,69.16-4.93,100.9-4.58,5.4.06,5.2-6.08,1.76-8.53-3-2.15-7.48-2.22-11-2.95-8.24-1.74-16.2-1.21-24.63-1.58-15.84-.68-32,4.44-47.5,3.56-13.93-.79-31.34.26-39.75-14.51-4.42-7.77,6.24-6.29,6.76-11.13.36-3.39-12.6-7.51-14.85-9.28-12.36-9.73-18.9-24.46-12.6-39.6,1.77-4.27,5.61-17.55,12.57-15.41,3.08.94,16.43,3.66,8.1,9C346.16,48.64,347.52,65,361.17,74.18Z"/><path class="cls-1" d="M779.23,85.12c-5.19,4.49-10.87,5.25-16.82,8.14-4.89,2.36,10.41,6.74,11.13,7.35,5.86,4.9-9.21,14.61-12.53,16.54-6.88,4-26.08,4.27-39.24,1.73-8.72-1.68-17.56-1.7-26.4-1.94-9.74-.27-39.13-4.33-45,6.85-4.72,9,13.28,4.78,15.28,4.39,7.48-1.46,16.65-3.1,24.77-3,18.72,0,37.46-.35,55,7.5,4.22,1.89,32.71,21.43,23.82,28.12-6.81,5.13-13.49-4.38-19.52-3.46-7.25,1.11,5.42,11.4,6.78,12.71,9,8.67,22.47,29.7,15.07,43-1.56,2.79-1.55,9.14-4.71,10.66-2.76,1.32-5.18-2.28-7.79-1-2,1-5,14-6.72,16.63-6.1,9.19-26.7,23-37.37,12.41-7.16-7.15,10.88-6.34,13.88-8.22,6.53-4.1,11.22-12.16,13.51-19.3,4.81-15,1.79-33.27-5.76-47-16.69-30.35-59.4-42.48-91.16-34.45-17.65,4.45-32.46,13.19-43.8,27.6-5,6.39-5.92,12.22-15.17,9.44-9.9-3-11.24-6.17-6.65-15.35,15.32-30.66,41.84-47.85,73.57-57.79,15.31-4.8,32.08-5.44,47.92-6.78C723,98,761.62,80.58,767.21,76.55c6.34-4.55,12.43-10.68,13.69-18.74S775,47,774.37,40.54s10.69-.63,12.38.93C800.74,54.33,791.6,74.44,779.23,85.12Z"/><path class="cls-1" d="M673,74.23c-5.52-3.71-11.64-7.45-18.6-6.81-29.46,2.72-48,30.13-65.76,50.59-3.18,3.66-7.36,7.4-12.3,8.36-3.79.74-7.49-1.8-11.39-1.42-9.31.89-13.36,1.64-20.24-5.78-11.56-12.48-20.31-26.83-32.8-38.65-11.69-11.07-28.66-19.39-44.63-13.06-4.19,1.67-9,11.56-12.74,11.51-6.47-.08-4-12.54-2.72-15.47,3.68-8.17,13.37-11.82,21-14.61,5.72-2.1,11.83.54,17.45.27,10.68-.51,9.86,4.24,15-5.81,4.86-9.52,13.73-1.62,19.88,2.59,11,7.51,13.38,29.57,19.34,44.17,1.61,3.94,11.72,13.76,12.76,3.93.61-5.8-5.57-12.59-7.92-17.51-3.6-7.53-11.14-16.77-12.14-25.1-.66-5.47-.71-18.73,2.81-23.26,2.24-2.88,10.15,1.84,10-2.34C549.84,19,551.24,14.65,556.52,9,563,2,565.62-4.83,573.42,4.63c4.34,5.26,15,13.28,8.48,20.39-5.19,5.63,4.91,2.1,6.47,1.85,5.92-.94,7.44,12.07,7.92,15.8,2.27,17.61-15.86,33.71-21.42,49.14-3.09,8.55,9.62,7.78,11.89-.17a238.42,238.42,0,0,1,7.92-22.57c2.64-6.69,7.14-15.24,12.72-20.13A63.63,63.63,0,0,1,623,39.38c6.44-2.85,5.47,8.1,8.32,10.11,3.78,2.66,14.49-2.05,19.43-1.27,7.53,0,13.11-.73,19.07,4.52,5.29,4.65,13.38,11.35,13,19.09C682.23,82.54,677.77,77.47,673,74.23Z"/><path class="cls-1" d="M854.51,230.86c-.31-6.86.67,3.86,0,0Z"/><path class="cls-1" d="M955,164.6c-2.56,6.43-6.31,10.56-11.75,15-3,2.49-16.45,6.47-11.53,11.3,6.59,6.45,8.4,10.11-2.34,12.32-18,3.71-32,.24-46-11.55-2.65-2.23-12.72-13.8-16.68-8.36-3.18,4.36,8.3,10.55,10.71,11.71,5.89,2.84,11.06,7,13.44,13.29s-13.14,6.4-16.7,6.47c-6.49.14-12.44-6-17.1-9.85-3.76-3.1-9.68-8.47-12.36-12.44A89.82,89.82,0,0,0,831,176.16c-3-2.8-5.63,2.12-4.7,4.57,1.27,3.32,5.23,6.26,7.6,8.75,11.34,11.87,19.85,24.47,20.6,41.38,1.09,6.3-4.53,14.63-9.85,17.7-2.76,1.59-14,3.68-9.07-2.93,9.56-12.83,3.5-28.71-5.08-40a166.81,166.81,0,0,0-37.17-36c-6.86-4.87-12.87-7.74-17.22-15-2.64-4.38-11.4-14.62-11.7-19.19-.34-5.11,16.54,2.22,18.75,3,8.1,2.89,15.93,6.47,24,9.36,17.95,6.38,36,13,54.42,17.78C890,172.94,925,185.27,950.09,162,955.76,156.69,957.88,157.36,955,164.6Z"/><path class="cls-1" d="M366.45,139.5c-2.87,5.86-8.09,10.12-9.9,16.77-1.5,5.54-11.32,8.79-16,11.2-7.06,3.63-12.39,9.6-17.74,15.29-9.37,10-21.81,18.89-27.21,32.32-2.84,7.06-5.45,13.23-2.4,20.8,1,2.52,11,13.49,2.82,13.8-14.49.55-21.46-17.28-18.2-29.15,4.19-15.25,14.2-28.5,26-39,.73-.65,5.16-5.7.64-5.6-3.75.09-7.6,4.5-10.27,6.64-6.89,5.52-12.21,12.3-18.44,18.52-4.45,4.46-11.45,14.12-18.7,13.59-4-.29-18.26,2.38-18.22-4.48,0-7.08,10.18-10.43,15.18-13.14,1.61-.87,15.62-14,7-11.77-15,3.94-24.67,22.59-42.35,21.19-2.75.28-21-4.22-22.1-6.82-1.72-3.91,6.18-13.5,1.74-15s-31.1-22.57-21.72-24.38c3.91-.75,10.66,8.12,14.23,9.8,7.79,3.68,17,6.56,25.73,5.72,8-.77,15.48-.62,23.49-1.67,8.77-1.16,17.68-4.12,26.15-6.59,29.32-8.53,59.32-14.72,86.8-28.21C354.83,138.41,369.73,132.78,366.45,139.5Z"/><path class="cls-1" d="M243.18,218.23c20.41-2.1-9.49,18-13.74,20.49C179.26,268,122.66,283,64.93,271.64c-15.57-3-30.1-8.27-44.77-14.52-6.74-2.88-13.64-6.41-18.84-11.69-4.09-4.16,2.43-4.57,4.72-5.66,10.09-4.81,12.53-2.08,21.7,3.75a104,104,0,0,0,20.31,10.25c11.41,4.12,28.87,12.29,41.27,10.68,2.06,0,11.6-1,5-3.78-5.56-2.34-14.75-6.8-18.11-12.07-3.46-5.45,10-4.19,6.88-9.18-2.88-4.69-3.52-11.67-2.62-16.95,1-6.09,3.44-12.81,10.62-13.29,9.51-.64,3.54,8,3.47,12.82-.21,13.34,11.72,24.61,24.43,26.73,28.32,4.74,62.32-2.28,88.18-14.72C219,228.32,229.85,219.61,243.18,218.23Z"/><path class="cls-1" d="M1045.51,260.33c11.66,2.08,31.58-4.59,41.78-10.13,6.12-3.32,12.09-5.24,17.61-9.78s8.73-6.95,15.74-3.28c14.63,7.67-5.25,16.19-13.52,20.08a179.51,179.51,0,0,1-42.27,13.4c-15.21,3-31.27,2.19-46.68,3.52-11.63,1-25.25-1.55-36.5-4.37A262.81,262.81,0,0,1,914,242c-8.29-4.84-16.83-9.2-25.3-13.7-2.37-1.25-11.69-7.72-2.69-8,14.87-.51,24.94,7.36,38.12,12.57,27.25,10.76,75,17.74,81.48,18,13.4,1.55,28.72-6.3,35.15-18.06,3.82-7,2.89-9.74-.23-16.39s5.34-5.71,8.6-3.71c7.12,4.37,7,11.09,6,18.72-1,7.18-4,8,1,13.67C1060.42,250,1041.36,259.59,1045.51,260.33Z"/><path class="cls-1" d="M591.71,215.85c2.29,8,5.09,16.07,11.32,22,11.53,10.9,35.22,16.13,45.86.12,2-3,3.81-24.1-1.94-20.08-6.92,4.82-9.87,10.53-17.94,2.87-5.87-5.57-7-13-4.64-20.48,2-6.06,11.29-11.41,18.47-11.66,21.4-.4,33.24,21.16,33.45,36.33.25,17.41-12,36.73-29.17,41.94-19.8,6-39.52,6.42-55.15-9.63A91.11,91.11,0,0,1,575.21,233c-2.24-4.58-8.29-19.9-4.55-24.37C576.46,201.68,589.75,209,591.71,215.85Z"/><path class="cls-1" d="M490.75,188.48c22,0,28.27,35.64,4.94,35.26-9.65-.15-13.8-11.55-15.1,2.67-.77,8.44,7,15,13.9,18.15,18,8.33,35.42,0,44.63-17.16,3.78-7,2-17.07,10.5-20.35,9.62-3.71,12.85,2.22,11.2,10.88-3.75,19.64-11.83,36.46-30.34,46-15.67,8.08-32.66,8.16-48.07-.9-16-9.41-24.09-27.87-22.25-45.49C461.62,203.45,475.29,186.91,490.75,188.48Z"/><path class="cls-1" d="M956.39,176.41c-1.86-1.52,5.93-16.19,7.11-18.35,5.31-9.74,5-26.8-3.48-34.48-3.11-2.81-8.08-3.73-12.1-2.81-4.51,1-6.47,7.72-10.73,7.87-4.57.16-6.12-6.25-10.26-7.17-6.4-1.42-9-2.1-11.36-9.23-4.31-12.94,7.62-19.3,17.07-22.92,10.7-4.1,26.91,2.23,33.62,7.59,8.16,6.52,13.94,20,14.28,31.42,1.42,12.45-5.25,27.09-12.24,37C967,167.08,959.87,179.26,956.39,176.41Z"/><path class="cls-1" d="M173.89,176.41c1.86-1.52-5.93-16.19-7.11-18.35-5.3-9.74-5-26.8,3.48-34.48,3.12-2.81,8.09-3.73,12.1-2.81,4.51,1,6.48,7.72,10.74,7.87,4.57.16,6.12-6.25,10.26-7.17,6.4-1.42,9-2.1,11.35-9.23,4.32-12.94-7.61-19.3-17.07-22.92-10.7-4.1-26.9,2.23-33.61,7.59-8.17,6.52-13.94,20-14.29,31.42-1.41,12.45,5.26,27.09,12.24,37C163.25,167.08,170.42,179.26,173.89,176.41Z"/><path class="cls-1" d="M530.07,200c6.16-25.21,77.4-19.75,73.7.89-.9,13.73-8.36,4-16,.73S571.15,198,562.94,198c-7.29,0-15.37.92-21.65,5C536.72,205.84,527.19,211.75,530.07,200Z"/><path class="cls-1" d="M565.78,134.55c12.85.08,13.64,20.46.49,20.41C553.39,154.91,553,134.47,565.78,134.55Z"/></g></g></svg>